<svg xmlns="http://www.w3.org/2000/svg" width="15" height="15"><path fill="#00b6ff" d="M15.005 12.957a2.08 2.08 0 01-2.066 2.067H2.304a2.075 2.075 0 01-2.066-2.067V3.894c0-1.134.931-2.066 2.066-2.066h2.254v-.88c0-.677 1.024-.673 1.024 0v.88H9.66v-.88c0-.673 1.024-.677 1.024 0v.88h2.255a2.07 2.07 0 012.066 2.066v9.063zm-4.474-2.608c.458 0 .833.372.833.834a.834.834 0 01-1.667 0c0-.462.375-.834.834-.834zm-2.716 0c.458 0 .834.372.834.834a.833.833 0 01-1.667 0c0-.462.372-.834.833-.834zm-2.715 0c.458 0 .833.372.833.834a.833.833 0 01-1.667 0c0-.462.372-.834.834-.834zm5.43-2.801a.834.834 0 11-.833.834c0-.459.375-.834.834-.834zm-2.715 0a.834.834 0 11-.002 1.666.834.834 0 01.002-1.666zm-2.715 0a.834.834 0 11-.002 1.666.834.834 0 01.002-1.666zm8.881-1.98H1.261v7.39c0 .571.468 1.039 1.043 1.039H12.94c.572 0 1.042-.468 1.042-1.04zM1.261 4.54h12.72v-.646c0-.569-.473-1.04-1.042-1.04h-2.28c-.147.478-.83.478-.977 0H5.56c-.148.478-.83.478-.978 0H2.304c-.575 0-1.042.468-1.042 1.04z"/></svg>