<svg xmlns="http://www.w3.org/2000/svg" width="36" height="37"><path fill="#666" d="M34.355 18.556c0-9.026-7.317-16.343-16.342-16.343C8.987 2.213 1.67 9.53 1.67 18.556s7.317 16.342 16.343 16.342c9.025 0 16.342-7.316 16.342-16.342zm1.634 0c0 9.928-8.048 17.976-17.976 17.976-9.929 0-17.977-8.048-17.977-17.976C.036 8.627 8.084.579 18.013.579c9.928 0 17.976 8.048 17.976 17.977zm-10.496-5.94l-2.694 13.208c-.127.62-.836.898-1.334.524l-4.068-3.062-2.073 2.17a.682.682 0 01-1.149-.282l-1.497-4.87-4.01-1.213c-.526-.16-.557-.911-.046-1.115l15.782-6.306c.6-.24 1.22.299 1.089.946zm-3.295 1.672l-8.657 5.505a.408.408 0 00-.168.462l1.161 3.836c.024.08.139.07.148-.014l.282-2.572c.011-.1.058-.19.13-.257l7.33-6.647c.176-.16-.027-.44-.226-.313z"/></svg>