<svg xmlns="http://www.w3.org/2000/svg" width="37" height="37"><path fill="#666" d="M34.823 18.556c0-9.025-7.316-16.342-16.342-16.342S2.138 9.53 2.138 18.556s7.317 16.342 16.343 16.342 16.342-7.316 16.342-16.342zm1.635 0c0 9.928-8.049 17.977-17.977 17.977-9.929 0-17.977-8.049-17.977-17.977C.504 8.627 8.552.579 18.481.579c9.928 0 17.977 8.048 17.977 17.977zm-16.356-2.46h2.464l-.29 2.46h-2.174v7.356h-3.26v-7.356h-1.628v-2.46h1.629V14.5c0-2.07.92-3.3 3.531-3.3h2.176v2.46h-1.36c-1.017 0-1.084.354-1.084 1.015z"/></svg>