<svg xmlns="http://www.w3.org/2000/svg" width="36" height="37"><path fill="#fff" d="M34.355 18.556c0-9.025-7.317-16.342-16.342-16.342C8.987 2.214 1.67 9.53 1.67 18.556s7.317 16.342 16.343 16.342c9.025 0 16.342-7.316 16.342-16.342zm1.634 0c0 9.928-8.048 17.976-17.976 17.976-9.929 0-17.977-8.048-17.977-17.976C.036 8.627 8.084.579 18.013.579c9.928 0 17.976 8.048 17.976 17.977zm-10.496-5.94l-2.695 13.208c-.126.62-.835.898-1.333.524l-4.068-3.062-2.073 2.17a.682.682 0 01-1.15-.282l-1.496-4.869-4.01-1.214c-.526-.16-.557-.911-.046-1.116l15.781-6.306c.601-.24 1.222.3 1.09.947zm-3.296 1.672l-8.656 5.505a.408.408 0 00-.168.463l1.16 3.835c.025.081.14.07.149-.014l.282-2.572a.414.414 0 01.13-.258l7.33-6.646c.176-.16-.028-.44-.227-.313z"/></svg>