<svg xmlns="http://www.w3.org/2000/svg" width="37" height="37"><path fill="#fff" d="M34.823 18.556c0-9.025-7.316-16.342-16.342-16.342S2.138 9.531 2.138 18.556c0 9.026 7.317 16.342 16.343 16.342s16.342-7.316 16.342-16.342zm1.635 0c0 9.929-8.049 17.977-17.977 17.977-9.929 0-17.977-8.048-17.977-17.977S8.552.579 18.481.579c9.928 0 17.977 8.048 17.977 17.977zM20.1 16.097h2.465l-.29 2.459H20.1v7.356h-3.258v-7.356h-1.63v-2.459h1.63V14.5c0-2.068.92-3.299 3.531-3.299h2.176v2.46h-1.36c-1.017 0-1.084.354-1.084 1.015z"/></svg>