<svg xmlns="http://www.w3.org/2000/svg" width="37" height="37"><path fill="#fff" d="M34.557 18.556c0-9.025-7.316-16.342-16.342-16.342S1.872 9.531 1.872 18.556c0 9.026 7.317 16.342 16.343 16.342s16.342-7.316 16.342-16.342zm1.635 0c0 9.929-8.049 17.977-17.977 17.977S.238 28.485.238 18.556 8.287.579 18.215.579s17.977 8.048 17.977 17.977zm-10.914-4.469a6.78 6.78 0 001.925-.519 6.802 6.802 0 01-1.672 1.708c.006.142.01.283.01.427 0 4.362-3.373 9.39-9.54 9.39a9.606 9.606 0 01-5.14-1.483c.262.03.529.045.8.045a6.79 6.79 0 004.163-1.412 3.348 3.348 0 01-3.131-2.292 3.39 3.39 0 001.514-.056c-1.534-.304-2.69-1.637-2.69-3.236v-.042c.453.247.97.396 1.52.413a3.284 3.284 0 01-1.492-2.746c0-.606.165-1.172.454-1.66a9.568 9.568 0 006.91 3.448 3.255 3.255 0 01-.086-.752c0-1.822 1.5-3.3 3.352-3.3a3.38 3.38 0 012.448 1.042 6.774 6.774 0 002.129-.8 3.32 3.32 0 01-1.474 1.825z"/></svg>