<svg xmlns="http://www.w3.org/2000/svg" width="62" height="51"><path fill="#fccd03" d="M58.711 22.951h-8.256v-2.753a2.752 2.752 0 00-2.753-2.752h-5.504a2.752 2.752 0 00-2.752 2.752v2.753H22.933v-2.753a2.752 2.752 0 00-2.752-2.752h-5.505a2.752 2.752 0 00-2.752 2.752v2.753H3.668V9.191H58.71zm-16.513 5.505v-8.258h5.504v8.258zm-27.522 0v-8.258h5.505v8.258zM55.96 47.72H6.42V25.703h5.505v2.753a2.752 2.752 0 002.752 2.751h5.505a2.752 2.752 0 002.752-2.75v-2.754h16.513v2.753a2.752 2.752 0 002.752 2.751h5.504a2.752 2.752 0 002.753-2.75v-2.754h5.504zM25.685 3.685h11.009a2.753 2.753 0 012.752 2.753H22.933a2.753 2.753 0 012.752-2.753zm33.026 2.753H42.198A5.505 5.505 0 0036.694.933H25.685a5.505 5.505 0 00-5.504 5.505H3.668A2.752 2.752 0 00.915 9.19v13.76a2.752 2.752 0 002.753 2.752V47.72a2.752 2.752 0 002.752 2.752h49.539a2.752 2.752 0 002.752-2.752V25.703a2.752 2.752 0 002.752-2.752V9.191a2.753 2.753 0 00-2.752-2.753z"/></svg>