<svg xmlns="http://www.w3.org/2000/svg" width="62" height="61"><path fill="#fccd03" d="M58.644 34.831c0-13.46-3.756-26.215-5.033-31.097-3.488 1.517-12.487 4.951-22.489 4.951-10.001 0-19-3.434-22.488-4.95C7.357 8.617 3.6 21.38 3.6 34.83c0 14.406 24.707 22.772 27.521 23.366 2.814-.594 27.523-8.976 27.523-23.366zm2.752 0c0 17.451-28.79 25.888-30.016 26.122a1.361 1.361 0 01-.515 0C29.639 60.719.848 52.282.848 34.83c0-16.514 5.502-33.209 5.558-33.404A1.377 1.377 0 018.344.574c.107.053 10.881 5.36 22.778 5.36 11.923 0 22.67-5.307 22.778-5.36a1.379 1.379 0 011.94.853c.055.195 5.556 16.89 5.556 33.404zM34.89 32.08l1.537-1.195 3.832-2.98h-6.39l-.672-1.78-2.117-5.604-2.116 5.605-.672 1.779H21.9l3.831 2.98 1.537 1.195-.615 1.848-1.957 5.87 4.755-3.487 1.627-1.194 1.628 1.194 4.754 3.487-1.957-5.87zm13.391-6.928l-10.164 7.907 4.69 14.072-11.727-8.6-11.728 8.6 4.692-14.072-10.165-7.907h12.51l4.691-12.423 4.69 12.421z"/></svg>